<?xml version="1.0" standalone="no"?>
<!DOCTYPE svg PUBLIC "-//W3C//DTD SVG 20010904//EN"
 "http://www.w3.org/TR/2001/REC-SVG-20010904/DTD/svg10.dtd">
<svg version="1.0" xmlns="http://www.w3.org/2000/svg"
 width="576.000000pt" height="576.000000pt" viewBox="0 0 576.000000 576.000000"
 preserveAspectRatio="xMidYMid meet">
<metadata>
Created by potrace 1.14, written by Peter Selinger 2001-2017
</metadata>
<g transform="translate(0.000000,576.000000) scale(0.100000,-0.100000)"
fill="#000000" stroke="none">
<path d="M154 5424 c-48 -17 -105 -70 -131 -123 -17 -34 -18 -123 -20 -1941
-2 -1305 1 -1921 8 -1955 18 -84 83 -206 142 -268 118 -121 226 -166 417 -173
69 -3 135 -6 148 -8 12 -2 22 1 22 6 0 5 4 7 8 4 9 -5 50 -6 242 -7 148 0 193
1 201 7 4 2 10 0 14 -6 4 -6 10 -8 15 -5 4 3 36 5 71 5 35 0 80 0 99 1 19 1
40 1 45 1 105 -6 265 -5 265 1 0 5 4 6 8 3 5 -3 38 -5 73 -6 75 0 270 -1 284
-1 48 0 93 0 110 0 11 0 47 0 80 0 33 0 65 0 70 0 42 -1 121 30 150 58 31 31
65 73 60 73 -3 0 0 10 7 23 34 63 10 190 -48 250 -73 75 -95 79 -409 76 -29 0
-228 -1 -240 0 -62 0 -103 0 -115 0 -8 0 -60 0 -115 0 -55 1 -137 1 -182 1
-46 1 -89 1 -95 1 -7 1 -35 0 -63 0 -52 -2 -168 -2 -345 0 -58 0 -116 0 -130
-1 -14 -1 -29 -2 -35 -2 -296 5 -279 -3 -282 144 -1 57 -2 123 -3 148 -1 46
-2 293 -1 320 0 8 0 35 0 60 0 25 0 50 0 55 0 80 0 184 0 200 1 16 0 63 0 120
-1 14 0 216 0 240 0 11 0 61 0 110 -1 50 -1 96 0 103 0 6 0 58 0 115 0 56 1
122 2 147 1 25 1 51 0 58 0 6 0 49 -1 95 0 45 0 136 -1 202 0 66 0 127 0 135
1 8 1 45 0 82 l0 68 93 0 c159 0 202 -1 210 -6 4 -3 8 0 8 6 0 6 4 9 8 6 10
-6 76 -8 170 -4 39 2 72 1 72 -2 0 -3 25 -5 55 -5 30 0 55 2 55 5 0 3 48 4
107 3 60 -2 131 -3 158 -3 28 1 64 0 80 -1 17 0 37 -1 45 0 8 0 42 0 75 0 33
0 67 0 75 0 8 1 31 1 50 0 19 -1 42 -1 50 0 8 0 40 0 70 0 30 0 62 0 70 0 43
2 125 -1 132 -5 4 -3 8 0 8 6 0 6 4 8 10 5 5 -3 42 -5 82 -5 40 1 91 0 113 -1
114 -4 171 20 242 105 13 14 20 26 18 26 -3 0 0 10 7 23 34 63 10 190 -48 250
-62 63 -108 78 -252 77 -48 0 -125 1 -172 1 -47 0 -105 -1 -130 -2 -25 -1 -51
-1 -57 -1 -16 1 -208 1 -225 1 -7 -1 -53 -1 -103 0 -49 0 -97 0 -105 0 -8 0
-80 0 -160 0 -80 0 -152 0 -160 0 -8 0 -69 0 -135 0 -66 1 -156 1 -200 1 -44
0 -110 1 -148 2 -37 2 -67 1 -67 -2 0 -3 -21 -3 -47 0 -51 5 -49 2 -54 83 -1
10 0 186 0 242 0 11 0 61 0 110 -1 50 -1 96 0 103 0 6 0 57 0 112 0 134 0 124
1 173 1 119 -17 172 -77 230 -62 61 -165 81 -249 51z"/>
<path d="M3115 5429 c-136 -39 -237 -177 -236 -321 1 -29 1 -84 1 -122 1 -38
3 -73 6 -78 3 -4 2 -8 -3 -8 -4 0 -7 -57 -5 -127 2 -71 3 -144 2 -163 -1 -19
-2 -42 -1 -50 3 -48 0 -133 -4 -140 -3 -5 -1 -11 5 -15 6 -4 8 -10 6 -14 -6
-8 -7 -53 -7 -201 1 -192 2 -233 7 -242 3 -4 2 -8 -3 -8 -4 0 -6 -52 -3 -115
3 -63 3 -115 0 -115 -3 0 -5 -25 -5 -55 0 -30 2 -55 5 -55 3 0 5 -37 6 -83 1
-98 26 -160 89 -222 77 -75 160 -99 325 -95 43 1 53 1 83 -1 16 -1 122 0 167
2 19 1 41 1 48 0 6 -1 18 -1 25 -2 16 -1 122 0 167 2 19 1 41 1 48 0 6 -1 18
-1 25 -2 16 -1 122 0 167 2 19 1 41 1 48 0 6 -1 18 -1 25 -2 16 -1 122 0 167
2 19 1 41 1 48 0 6 -1 18 -1 25 -2 16 -1 122 0 167 2 19 1 41 1 48 0 6 -1 18
-1 25 -2 16 -1 122 0 167 2 19 1 41 1 48 0 6 -1 18 -1 25 -2 16 -1 122 0 167
2 19 1 41 1 48 0 6 -1 18 -1 25 -2 16 -1 122 0 167 2 19 1 42 1 50 0 42 -3
145 1 152 5 4 3 8 1 8 -4 0 -12 22 -8 105 19 74 24 141 83 181 159 l29 55 0
725 0 725 -24 49 c-64 129 -174 188 -348 186 -24 -1 -51 -1 -60 -1 -10 0 -38
0 -63 0 -43 0 -54 0 -82 2 -17 1 -123 0 -168 -2 -19 -1 -41 -1 -47 0 -7 1 -19
1 -25 2 -17 1 -123 0 -168 -2 -19 -1 -41 -1 -47 0 -34 3 -48 3 -199 1 -30 -1
-58 9 -105 37 -35 21 -68 41 -74 46 -5 4 -68 43 -140 87 -71 44 -135 83 -141
87 -78 59 -110 63 -534 62 -212 -1 -398 -5 -415 -10z m377 -474 c5 5 192 8
306 6 21 -1 81 -27 92 -40 5 -6 153 -98 313 -193 128 -78 206 -94 427 -87 8 0
69 0 135 0 66 -1 156 -1 200 -1 44 0 110 -1 148 -2 37 -2 67 -1 67 2 0 3 21 3
48 0 50 -5 49 -4 53 -82 0 -13 0 -163 0 -203 0 -11 0 -40 0 -65 0 -25 0 -49 0
-55 0 -5 0 -48 0 -95 0 -47 0 -92 0 -100 1 -8 0 -26 -1 -40 -1 -26 -2 -226 -1
-247 0 -7 1 -24 2 -38 1 -14 -1 -28 -3 -31 -4 -4 -71 -5 -118 -3 -8 1 -31 0
-50 0 -19 -1 -81 -2 -137 -2 -57 0 -109 0 -115 0 -7 -1 -53 -1 -103 0 -49 0
-99 0 -110 0 -24 0 -226 -1 -240 0 -57 0 -104 1 -120 0 -16 0 -120 0 -200 0
-5 0 -30 0 -55 0 -25 0 -52 0 -60 0 -8 0 -71 0 -140 0 -69 0 -134 0 -145 0
-11 0 -73 1 -137 1 -65 1 -122 -2 -128 -5 -5 -3 -10 -2 -10 3 0 5 -11 7 -24 5
l-24 -5 -2 138 c-1 77 -1 144 -1 149 -1 6 0 21 1 35 1 14 1 72 1 130 -2 177
-2 293 0 345 0 28 1 56 0 63 -1 23 -1 172 0 270 0 53 0 102 -1 107 -7 33 2 44
38 47 20 2 49 0 64 -4 14 -3 28 -5 30 -3z"/>
<path d="M3250 2567 c-3 -3 -32 -7 -66 -10 -63 -4 -154 -33 -154 -48 0 -5 -6
-9 -13 -9 -19 0 -83 -75 -106 -125 -24 -52 -30 -89 -30 -200 0 -49 -1 -106 -2
-125 -1 -19 -1 -42 0 -50 3 -48 0 -133 -4 -140 -3 -5 -1 -11 5 -15 6 -4 8 -10
6 -14 -6 -8 -7 -53 -7 -201 1 -192 2 -233 7 -242 3 -4 2 -8 -3 -8 -4 0 -6 -52
-3 -115 3 -63 3 -115 0 -115 -3 0 -5 -25 -5 -55 0 -30 2 -55 5 -55 3 0 4 -30
2 -67 -3 -77 -3 -74 -3 -128 0 -22 0 -47 0 -55 -2 -75 6 -211 13 -235 30 -93
88 -162 173 -205 l50 -25 1195 0 c657 0 1204 2 1215 6 81 22 165 94 206 175
l24 49 3 690 c2 494 0 706 -8 745 -20 94 -86 177 -178 221 -38 18 -68 23 -157
27 -125 4 -195 3 -206 -4 -4 -2 -10 0 -14 6 -4 6 -10 8 -15 5 -4 -3 -36 -5
-71 -5 -35 0 -80 0 -99 -1 -19 -1 -39 -1 -45 -1 -105 6 -265 5 -265 -1 0 -5
-4 -6 -8 -3 -5 3 -40 5 -78 5 -38 1 -84 1 -102 1 -21 0 -60 18 -108 48 -42 26
-91 56 -110 67 -19 11 -89 54 -156 95 -135 83 -162 96 -210 104 -46 8 -306 8
-318 1 -6 -3 -10 -3 -10 2 0 4 -25 8 -55 8 -30 0 -55 -2 -55 -5 0 -3 -29 -5
-65 -5 -36 0 -65 3 -65 6 0 3 -22 3 -50 -1 -27 -3 -51 -2 -52 2 -2 5 -6 7 -8
5z m192 -491 c4 3 121 5 218 3 8 0 40 0 70 1 87 1 104 -4 190 -59 44 -28 83
-51 86 -51 3 0 10 -5 17 -11 17 -15 108 -70 202 -123 101 -57 164 -73 290 -75
55 -1 105 -2 110 -3 6 0 21 1 35 2 14 1 70 1 125 1 55 -1 136 -1 180 -1 44 0
110 -1 148 -2 37 -2 67 -1 67 2 0 3 21 3 48 0 50 -5 49 -4 53 -82 0 -13 0
-163 0 -203 0 -11 0 -40 0 -65 0 -25 0 -49 0 -55 0 -5 0 -48 0 -95 0 -47 0
-92 0 -100 1 -8 0 -26 -1 -40 -1 -26 -2 -226 -1 -247 0 -7 1 -24 2 -38 1 -14
-1 -28 -3 -31 -4 -4 -71 -5 -118 -3 -8 1 -31 0 -50 0 -19 -1 -80 -2 -135 -2
-194 1 -310 2 -320 2 -5 1 -21 0 -35 -1 -14 -1 -70 -1 -125 -1 -55 1 -137 1
-182 1 -46 1 -89 1 -95 1 -7 1 -35 0 -63 0 -27 -1 -93 -2 -145 -1 -109 0 -300
1 -315 1 -5 1 -21 0 -35 -1 -14 0 -71 -1 -127 0 -57 1 -107 -1 -113 -5 -5 -3
-10 -2 -10 3 0 5 -11 7 -24 5 l-25 -5 -1 158 c-1 88 -1 166 -1 174 0 16 0 258
-1 275 0 6 1 21 2 35 1 14 1 72 1 130 -1 58 -1 150 -2 205 0 55 0 105 0 110 0
6 0 30 1 55 1 25 1 50 0 55 -1 6 -2 27 -1 47 1 40 18 51 57 37 12 -4 24 -6 26
-3z"/>
</g>
</svg>
